<?xml version="1.0" encoding="UTF-8"?>
<svg width="160" height="36" viewBox="0 0 160 36" fill="none" xmlns="http://www.w3.org/2000/svg">
  <defs>
    <linearGradient id="wave" x1="0" y1="0" x2="160" y2="0" gradientUnits="userSpaceOnUse">
      <stop stop-color="#3b82f6"/>
      <stop offset="1" stop-color="#93c5fd"/>
    </linearGradient>
  </defs>
  <!-- Mark -->
  <g>
    <path d="M20 6c3.5 0 6.7 1.5 9.2 3.9a1.2 1.2 0 0 1-1.6 1.8C25.8 9.3 23 8.2 20 8.2c-5.8 0-10.6 4.8-10.6 10.6S14.2 29.4 20 29.4c3 0 5.8-1.1 7.6-3.5a1.2 1.2 0 1 1 1.9 1.5C27 30.3 23.7 31.8 20 31.8 12.9 31.8 7.2 26.1 7.2 19S12.9 6 20 6z" fill="#1e3a8a"/>
    <path d="M6 22c4.5 0 7.5-5 12-5s7.5 5 12 5 7.5-5 12-5" stroke="url(#wave)" stroke-width="2.5" stroke-linecap="round" fill="none"/>
  </g>
  <!-- Logotype -->
  <g transform="translate(48,8)" fill="#0f172a">
    <path d="M0 18V2h3.2v13.6h7.3V18H0z"/>
    <path d="M13.6 10c0-4.7 3.5-8.4 8.4-8.4 3.2 0 5.8 1.6 7.2 4.1l-2.7 1.5c-.8-1.5-2.4-2.5-4.5-2.5-3.1 0-5.2 2.3-5.2 5.3s2.1 5.3 5.2 5.3c2.1 0 3.7-1 4.5-2.5l2.7 1.5c-1.4 2.5-4 4.1-7.2 4.1-4.9 0-8.4-3.7-8.4-8.4z"/>
    <path d="M33.7 2h3.1l4.7 10.8L46.2 2h3.1L43.9 18h-3l-7.2-16z"/>
    <path d="M57.8 2H61v16h-3.2V2z"/>
    <path d="M67.2 2h3.2v6.2h7.1V2h3.2v16h-3.2v-6.5h-7.1V18h-3.2V2z"/>
  </g>
</svg>
